<svg version="1.2" xmlns="http://www.w3.org/2000/svg" viewBox="0 0 1640 664" width="1640" height="664">
	<style>
		.s0 { fill: #ffffff } 
	</style>
	<path id="Galatchi" fill-rule="evenodd" class="s0" d="m340.94 331.95q-2.15 4.3-5.02 8.61-2.87 3.59-8.61 4.31-5.03 0-5.03 5.74 0.72 5.74 0.72 10.05v101.92q0 7.9-0.72 15.79-0.72 7.18-12.92 9.34-5.74 1.43-5.74 7.17 0.72 5.75 0.72 10.77 1.43 17.94-15.79 15.79-7.18-0.72-13.64 0.72-5.74 0.72-7.18 11.48-0.72 3.59-4.31 4.31-2.87 0-6.46 0.72c-2.39 0-32.77 0-35.17 0q-2.87 0-4.3 3.59-1.44 9.33-5.75 12.2-4.3 2.87-9.33 3.59-5.02 0-10.76-0.72-5.75-1.44-10.77-0.72-6.46 1.44-12.92 0-6.46-1.43-7.18-11.48-0.72-5.74-5.02-5.74-3.59-0.72-7.18-0.72-5.74 0-11.48-0.72-5.75-0.72-11.49 0.72-5.02 1.43-8.61 0-2.87-1.44-5.03-4.31-2.15-2.87-4.3-5.74-1.44-2.87-4.31-5.03-2.87-2.15-7.18-2.15-3.59 0-7.89 0.72-3.59 0-7.18-0.72-3.59-0.72-5.74-3.59-3.59-6.46-7.18-10.76-3.59-5.03-11.49-6.46-0.71 0-1.43-1.44-0.72-1.44-0.72-2.87 2.87-12.92-2.87-21.53-5.74-8.62-15.07-16.51-0.72-0.72-0.72-1.44 0.72-0.72 0-1.43-9.33-2.88-12.92-7.9-3.59-5.02-5.03-10.77-0.71-6.46-0.71-12.92 0.71-7.17 0.71-13.63 0-3.59 0-7.18 0-3.59-2.87-4.31-7.89-2.15-11.48-5.74-2.87-4.31-3.59-9.33 0-5.03 0.72-10.05 0.72-5.03 0.72-10.05-0.72-27.28-0.72-54.55 0-27.99 0-55.27 0.72-5.74 0.72-11.48 0-5.75 10.04-7.18 5.03-0.72 5.75-4.31 0.71-4.31 0.71-7.89v-25.84q0-5.75 1.44-10.77 1.44-5.03 10.05-5.74 2.87 0 5.02-1.44 2.16-1.43 1.44-4.31-2.87-13.63 2.87-22.25 6.46-8.61 15.07-16.51 7.18-6.45 13.64-12.91 7.18-7.18 14.36-13.64 2.15-1.44 4.3-2.16 2.87-0.71 2.87-3.58 0.72-10.05 6.46-10.05 6.46-0.72 12.21-0.72 6.46-0.72 11.48-1.44 5.74-0.71 7.18-10.76 1.43-7.18 6.46-6.46 5.02 0 10.05 0 17.94-0.72 35.89-0.72 17.94 0 35.89 0 18.66 0 36.6 0.72 18.66 0 37.33-0.72 10.05 0 12.92 4.31 3.59 3.58 2.87 12.2c0 2.39 0 100.01 0 103.36q0 4.3-6.46 5.74-5.74 1.43-7.9-1.44-2.15-3.59-2.87-9.33-0.72-1.43-1.43-3.59-0.72-2.15-2.16-2.15-6.46 0-10.05-2.15-2.87-2.87-4.3-5.75-0.72-3.58-0.72-7.17 0-4.31 0-8.62 0-3.59 0-7.17 0-3.59-3.59-4.31-6.46-0.72-9.33-2.87-2.15-2.87-3.59-6.46-0.72-3.59-0.72-7.18 0.72-4.31 0.72-8.61 0-7.9-3.59-10.05-3.59-2.87-10.77-2.87h-81.82q-2.87 0-5.74 0.72-2.88 0-3.59 2.15-1.44 7.89-6.46 11.48-4.31 3.59-10.77 7.18-2.15 1.44-4.31 4.31-1.43 2.15-3.59 5.02-1.43 2.15-4.3 5.03-2.16 2.15-5.74 2.87-1.44 0-2.16 2.87 0 2.15-0.72 3.59 0 4.3 0 9.33 0.72 4.3-0.71 8.61-0.72 3.59-4.31 6.46-2.87 2.87-10.05 4.31-3.59 0.72-3.59 5.74c0 3.35 0 25.6 0 27.99h59.58q-0.72 3.59 0 7.9 0.72 3.59-2.16 7.18h-30.14q-1.44 0-2.16 1.43 0 0.72-1.43 1.44 0.72 4.3-0.72 8.61-0.72 4.31 2.15 8.61 3.59 0 6.46 0.72 2.88 0 6.46 0.72 0.72 3.59 0.72 7.18 0.72 2.87 1.44 6.46 5.02 0.72 9.33 0.72 4.31 0 7.89 0 1.44 2.87 1.44 5.74 0 2.15 0 5.02 0 2.87 0 5.03 0.72 2.15 2.87 4.3 3.59-0.71 6.46 0.72 2.87 0.72 5.74-2.15 0-1.44 0-7.9 0-7.18 0.72-10.76h33.74l0.71-0.72q0-0.72 0.72-1.44 0.72-2.87 0.72-5.74 0.72-3.59 0.72-7.18 4.3 0 8.61 0 5.03 0 9.33-0.72 4.31 0 8.62 1.44 4.3 0.72 7.89-2.87 0.72-4.31 0.72-8.61 0.72-4.31-1.44-9.34-3.59-0.71-7.17-0.71-2.88-0.72-6.46-1.44v-3.59q-0.72-6.46-2.16-7.18-0.72-1.43-7.18-2.87-10.76-2.15-11.48-15.79 0-1.43-0.72-2.15-0.72-0.72-1.43-2.15-2.87 0-6.46 0-2.87-0.72-7.18 1.43-0.72 7.18-0.72 10.77 0 3.59-0.72 5.02 0 1.44-0.71 2.16-0.72 0-2.88 0-7.17 0-15.07 0.71-7.89 0-15.07 0v-18.66q5.02-1.43 15.07-2.87 0-3.59 0-5.74 0-2.87 0.72-6.46 2.87-3.59 7.18-2.16 5.02 0.72 8.61-2.87 3.59-3.59 3.59-7.89 0-4.31 1.43-7.9 4.31-2.87 8.62-2.15 4.3 0.72 8.61 0.72 3.59-0.72 7.18-0.72 4.31 0 9.33 0 2.15 8.61 0.72 17.94-0.72 8.62 1.43 17.23 3.59 0.72 7.9 0.72 5.02-0.72 8.61 0 0.72 3.59-0.72 7.18-1.43 3.58 0 7.17 0.72 1.44 0 2.87 0 1.44 1.44 2.88h32.3v15.79h24.4q2.88 0.71 5.03 0 2.87-0.72 5.02 0.71 1.44 2.16 1.44 6.46 0.72 3.59 0.72 7.18-0.72 2.87-1.44 4.31 0 1.43-1.43 1.43h-2.88q-5.74 0-10.76 0.72-5.03 0-10.77 0l-22.97 0.72q0 4.31 0 7.18 0.72 2.87 0.72 5.02 0 2.16-0.72 2.16h-35.17q-2.87 8.61-0.72 17.94l-2.15 2.15-21.53 0.72h-11.49q-2.15 3.59-2.15 7.18 0.72 2.87 0.72 6.46l-1.44 1.43q-4.31 0-10.77 0.72-5.74 0-7.89 0v0.72q-0.72 0.72-0.72 1.44c0 0.47 0 13.87 0 14.35q0 2.15-2.87 2.87c-1.91 0-16.99 0-25.12 0l-7.18-7.18q-1.44-7.17-0.72-13.63 0.72-6.46-0.72-13.64-3.58-0.72-6.46-0.72-2.87-0.72-5.74-0.72-3.59-4.3-2.87-8.61 1.44-5.02-0.72-9.33 0-2.15-2.15-2.15h-22.25q-1.44 1.43-2.15 1.43-5.75 0.72-8.62 3.59-2.87 2.15-3.59 5.74-0.71 2.87-0.71 6.46c0 2.4 0 48.57 0 50.96q0 3.59 0 7.9 0 3.59 0.71 7.18 0.72 3.59 2.87 6.46 2.88 2.15 9.34 3.59 3.58 1.43 3.58 5.74 0.72 4.31 0.72 7.89v33.02q0 4.31-0.72 8.62 0 3.58 0.72 7.17 1.44 3.59 4.31 6.46 2.87 2.16 9.33 2.87 4.31 0 4.31 5.03 0.71 4.31 0.71 7.89 0 3.59 0 7.18 0 3.59 0.72 7.18 0.72 2.87 3.59 5.74 2.87 2.16 8.61 2.16 0 5.74 2.88 9.33 3.58 2.87 7.17 5.74 4.31 2.87 7.9 5.74 4.31 2.15 5.02 7.18 1.44 6.46 5.75 6.46 5.02-0.72 9.33 0 7.89 0.72 13.63 1.43 5.75 0.72 9.34 12.21 1.43 3.59 5.02 5.74 4.31 1.43 8.61 1.43 4.31 0 7.9-0.71 3.59-1.44 4.31-2.87 2.87-5.03 7.17-7.9 5.03-3.59 9.33-7.18 4.31-3.59 7.18-7.89 2.87-5.03 1.44-12.21-1.44-5.74-1.44-11.48 0.72-5.74 1.44-11.48 0-2.88 0-6.46 0.72-3.59 4.3-3.59 6.46-0.72 9.34-2.87 2.87-2.88 3.58-6.46 1.44-3.59 1.44-7.18 0-4.31 0-8.62 0-8.61 0-17.22 0-9.33-0.72-17.95 0-3.59 0-7.17 0-3.59-3.59-4.31-12.92-1.44-14.35-8.61-0.72-7.18 0-15.08 0-5.74-2.87-8.61-2.16-2.87-7.9-6.46-2.87-1.44-5.74-4.31-2.15-3.59-5.03-6.46-2.15-3.59-5.02-6.46-2.87-2.87-7.9-4.3-2.15-0.72-2.15-5.03 0.72-5.02 5.74-6.46 2.16-1.43 4.31-1.43c1.37 0 70.02 0 109.38 0q-2.19-3.81-2.19-7.18 0.72-4.31 0.72-8.62 0-4.3-0.72-8.61 0-5.02 2.87-10.05h37.32q1.44-0.72 2.87-1.43 1.44-0.72 3.59-2.16 3.59-1.43 5.75-4.3 2.87-2.87 5.02-6.46 2.15-3.59 5.02-6.46 3.59-2.87 8.62-3.59-1.44-5.74 1.43-7.9 2.87-2.87 6.46-4.3 4.31-2.16 7.9-3.59 3.59-2.16 3.59-6.46 0-5.03 2.87-7.18 3.59-2.15 7.18-3.59 3.59-1.44 6.46-3.59 2.87-2.87 2.15-8.61-0.72-2.87 2.87-3.59 4.31-0.72 7.9-0.72h63.88q5.74 0 8.61 2.87 2.87 2.87 6.46 6.46 3.59 2.87 6.46 7.18 2.87 4.31 5.74 8.61 2.88 3.59 6.46 7.18 4.31 2.87 9.34 4.31 3.58 0.72 5.02 2.87 1.44 1.43 1.44 3.59 0.71 2.15 0 5.02 0 2.87 0 5.03 0.71 27.27 0.71 55.27c0 18.18 0 133.26 0 151.45q0 3.59-0.71 7.89 0 3.59 0.71 7.18 0 3.59 0.72 7.18 1.44 3.59 7.18 3.59 7.89 0 8.61-7.18 0.72-5.03 2.87-7.9 2.16-3.59 7.9-2.87 2.07 0.46 3.55 1.22 2.57-1.34 6.74-1.94 5.74-1.43 5.02-5.74 0-5.02 0-8.61 0.72-16.51 0.72-33.02c0-11.48 0-233.75 0-244.76h-10.77q-2.15 0-6.46-1.44v-10.76q2.87-2.87 4.31-2.87h12.92q-0.72-2.16-0.72-4.31 0.72-2.15 0-4.31 0-3.59 0-7.18 0.72-3.58 0-6.46-0.72-3.58-3.59-5.74-2.15-2.87-7.89-3.59-3.59-0.71-4.31-3.58-0.72-3.59-0.72-7.18 0-8.62-1.43-16.51-0.72-7.9-13.64-10.05-4.31-0.72-4.31-6.46 0-5.74 5.03-7.18 6.46-2.87 10.05-5.74 3.58-3.59 6.46-10.05 1.43-5.02 7.17-3.59 6.46 0.72 11.49 0 5.74 0 10.05-0.72 4.3-1.43 5.02-9.33 0.72-7.17 10.05-8.61 15.79-2.15 20.82 2.15 5.02 3.59 5.02 20.1v78.24q3.59 0 6.46 0 3.59 0 7.18-1.44 2.87-2.87 1.43-5.74-0.71-3.59 1.44-7.18 3.59-1.43 7.89-1.43 5.03 0 10.77 1.43 0.72 2.87 0.72 5.75 0 2.87 0.72 6.45 2.15 2.88 5.02 2.16 3.59-0.72 7.18 0.72 0.72 0.71 1.43 0.71 0 0.72 0 0.72 0.72 0 0.72 0.72 1.44 7.89 2.16 10.05 0.71 1.43 5.74 7.18h25.84q3.59 3.58 2.87 7.17-0.72 2.87-1.44 6.46-4.3 2.16-8.61 2.16-4.31-0.72-8.61-0.72-3.59 0.72-7.9 0.72-3.59-0.72-7.18-0.72-2.15 2.15-2.87 5.02 0 2.16 0 5.03 0 2.15 0 5.02 0 2.87-1.43 5.03-7.9 1.43-15.79 0.71-7.9-0.71-17.23 0-0.72 3.59-1.44 7.18 0 3.59-0.71 7.18h-14.36c0 14.27 0 38.43 0 63.88h37.32q1.44-0.72 2.88-1.43 1.43-0.72 3.58-2.16 3.59-1.43 5.75-4.3 2.87-2.87 5.02-6.46 2.15-3.59 5.03-6.46 3.58-2.87 8.61-3.59-1.44-5.74 1.43-7.9 2.88-2.87 6.46-4.3 4.31-2.16 7.9-3.59 3.59-2.16 3.59-6.46 0-5.03 2.87-7.18 3.59-2.15 7.18-3.59 3.59-1.44 6.46-3.59 2.87-2.87 2.15-8.61-0.72-2.87 2.87-3.59 4.31-0.72 7.9-0.72h63.88q5.74 0 8.61 2.87 2.87 2.87 6.46 6.46 3.59 2.87 6.46 7.18 2.87 4.31 5.75 8.61 2.87 3.59 6.46 7.18 4.3 2.87 9.33 4.31 3.59 0.72 5.02 2.87 1.44 1.43 1.44 3.59 0.71 2.15 0 5.02 0 2.87 0 5.03 0.71 27.27 0.71 55.27c0 18.18 0 133.26 0 151.45q0 3.59-0.71 7.89 0 3.59 0.71 7.18 0 3.59 0.72 7.18 1.44 3.59 7.18 3.59 7.9 0 8.61-7.18 0.72-5.03 2.87-7.9 2.16-3.59 7.9-2.87 6.46 1.44 7.18 5.74 0.72 3.59 0.72 7.9 0.71 7.18 0 14.36 0 6.46 0 13.63 0 5.03-2.16 8.62-1.43 3.59-7.18 3.59-7.89 0.71-9.33 10.04-0.71 5.75-4.3 6.46-3.59 0.72-7.18 0.72h-30.87q-5.74 0-12.92 0.72-6.46 0.72-12.2-2.87-5.74-4.31-4.3-10.77 1.43-7.18 0-12.92-0.72-3.59-1.44-5.74-0.72-2.87-5.02-3.59-3.59-0.72-6.46 0.72-2.88 1.43-2.88 5.02 0 5.75-3.58 8.62-3.59 2.87-7.9 5.74-4.31 2.15-8.61 5.02-3.59 2.87-3.59 8.62-7.18 0.71-14.36 1.43c-4.3 0-28.95 0-33.73 0q-7.9 0-15.79 0.72-7.18 0-15.08-2.15-2.87-0.72-5.02-3.59-1.44-2.87-3.59-5.74-1.44-3.59-4.31-5.75-2.87-2.87-7.89-2.87-0.83 0.28-1.44-0.08 0 2.55 0 5.11 0 5.02-0.72 10.76-0.71 2.16-3.59 3.59-2.87 0.72-5.74 0.72h-104.79q-3.4 0-6.79-1.28-3.19 0.56-6.37 0.56h-30.87q-5.74 0-12.92 0.72-6.46 0.72-12.2-2.87-5.74-4.31-4.31-10.77 1.44-7.18 0-12.92-0.71-3.59-1.43-5.74-0.72-2.87-5.03-3.59-3.58-0.72-6.46 0.72-2.87 1.43-2.87 5.02 0 5.75-3.59 8.62-3.58 2.87-7.89 5.74-4.31 2.15-8.61 5.02-3.59 2.87-3.59 8.62-7.18 0.71-14.36 1.43c-4.31 0-28.95 0-33.73 0q-7.9 0-15.8 0.72-7.17 0-15.07-2.15-2.87-0.72-5.02-3.59-1.44-2.87-3.59-5.74-1.44-3.59-4.31-5.75-2.87-2.87-7.89-2.87-2.16 0.72-2.88-2.87-0.71-4.31-0.71-7.89v-40.92q0-7.18 1.43-12.2 1.44-5.02 10.77-5.74 5.02-0.72 5.74-4.31 0.72-4.31 0.72-7.89 0-3.59 0-7.9 0-4.31 0.72-7.18 0.71-3.59 3.59-5.74 2.87-2.87 9.33-3.59 0-6.46 2.87-9.33 2.87-3.59 7.18-5.74 4.3-2.87 7.89-5.74 4.31-2.88 5.03-7.9 1.43-7.18 7.17-5.74 5.75 0.72 10.77 0.72 6.46-0.72 10.77-2.16 4.3-2.15 7.89-10.05 2.87-6.46 9.33-12.92 7.18-6.46 12.92-9.33 8.62-3.59 10.05-8.61 2.16-5.03 2.16-12.2v-14.36h-25.84q-4.31 5.03-2.88 10.05 1.44 5.02-2.15 10.77h-30.15q-3.58 2.15-3.58 5.02 0.71 2.87 0.71 5.03 0 5.02-4.3 5.02h-10.05q-1.44 9.33-2.87 12.2-0.72 2.87-6.46 8.62-5.75 0-12.21 0-6.46 0-12.92-0.72-0.71 0-2.87-2.16v-30.86q-3.59-3.59-6.46-2.15-2.87 0.71-6.46 0-1.53-1.76-2.73-3.17-2.22 2.54-3.97 6.04zm304.82 27.99q0.72 48.09-0.72 97.62-0.72 8.61 1.44 15.07 2.87 6.46 6.46 11.49 4.3 4.3 8.61 8.61 5.03 4.31 9.33 9.33 2.16 2.15 5.74 2.87 1.27 0.21 2.16 0.85v-39.61q0-7.18 1.43-12.2 1.44-5.02 10.77-5.74 5.02-0.72 5.74-4.31 0.72-4.31 0.72-7.89 0-3.59 0-7.9 0-4.31 0.72-7.18 0.72-3.59 3.59-5.74 2.87-2.87 9.33-3.59 0-6.46 2.87-9.33 2.87-3.59 7.18-5.74 4.3-2.87 7.89-5.74 4.31-2.88 5.03-7.9 1.43-7.18 7.17-5.74 5.75 0.72 10.77 0.72 6.46-0.72 10.77-2.16 4.3-2.15 7.89-10.05 2.87-6.46 9.33-12.92 7.18-6.46 12.92-9.33 8.62-3.59 10.05-8.61 2.16-5.03 2.16-12.2v-14.36h-25.84q-4.31 5.03-2.87 10.05 1.43 5.02-2.16 10.77h-30.14q-3.59 2.15-3.59 5.02 0.71 2.87 0.71 5.03 0 5.02-4.3 5.02h-10.05q-1.44 9.33-2.87 12.2-0.72 2.87-6.46 8.62-5.74 0-12.2 0-6.46 0-12.92-0.72-0.72 0-2.88-2.16v-30.86q-3.58-3.59-6.46-2.15-2.87 0.71-6.46 0-5.02-5.75-6.46-7.9-0.71-2.87-2.15-12.2h-21.53q-0.38-0.53-0.72-1.05c0 21.01 0 40.09 0 52.01zm-213.42-60.29q0.72-2.87-2.15-5.74-11.49-0.72-15.08-4.31-3.58-4.31-3.58-16.51-2.16 0-2.88 0-0.71-0.72-1.43-0.72-7.18 0.72-8.61 2.16-0.72 0.71-2.16 7.17-0.72 9.33-10.76 11.49-2.16 0.72-5.03 0-2.15-0.72-4.31 2.87 0 5.74-0.71 12.2-0.72 5.74 0.71 12.2 0.72 2.16 2.88 4.31 2.87 2.15 5.74 3.59 2.15 1.43 3.59 0 2.15-2.15 4.3-3.59 5.03-2.87 3.59-7.9-1.43-5.02 2.87-8.61h29.43q0.72 0 3.59-2.87-0.72-2.87 0-5.74zm43.79-7.18c0-3.35 0-45.46 0-48.81q0.71-5.74-5.75-7.89-6.46-2.16-14.35-2.88-7.9-0.71-12.2 4.31-3.59 3.59-5.75 7.18-2.15 3.59-5.74 6.46v19.38q5.03 3.59 9.33 2.87 4.31-0.72 8.62-0.72 3.58 0.72 7.17 0.72 4.31-0.72 7.9-0.72 2.15 2.16 2.15 5.03 0.72 2.15 0.72 5.02 0 2.15 0 5.03 0 2.87 1.44 5.02zm-4.31 172.27q2.87-2.87 3.59-5.75 1.43-3.58 0.72-7.17c0-2.87 0-38.76 0-41.63q0-5.03-0.72-10.05 0-5.03-7.9-5.03-3.59 0-7.89-0.72-3.59-0.71-7.18-0.71-3.59 0-6.46 1.43-2.87 1.44-5.03 6.46-2.15 5.74-5.02 8.62-2.15 2.87-7.9 3.58-3.58 0.72-5.02 3.59-1.44 2.16-1.44 5.75v50.24q0 3.59 0.72 6.46 1.44 2.87 5.03 3.59 5.74 0.72 11.48 0.72 5.74 0 11.49 0 5.74-0.72 5.74-4.31 0.72-3.59 2.15-7.18 0.72-1.43 1.44-2.87 1.43-2.15 2.87-2.87 6.46 0 9.33-2.15zm176.81-306.49q0 0-2.15 2.15v12.92h32.3q0.72 0 2.15-1.44v-13.63zm112.69 141.4q0.72-2.87-2.15-5.74-11.49-0.72-15.07-4.31-3.59-4.31-3.59-16.51-2.16 0-2.87 0-0.72-0.72-1.44-0.72-7.18 0.72-8.61 2.16-0.72 0.71-2.16 7.17-0.71 9.33-10.76 11.49-2.16 0.72-5.03 0-2.15-0.72-4.3 2.87 0 5.74-0.72 12.2-0.72 5.74 0.72 12.2 0.71 2.16 2.87 4.31 2.87 2.15 5.74 3.59 2.15 1.43 3.59 0 2.15-2.15 4.3-3.59 5.03-2.87 3.59-7.9-1.43-5.02 2.87-8.61h29.43q0.72 0 3.59-2.87-0.72-2.87 0-5.74zm43.79-7.18c0-3.35 0-45.46 0-48.81q0.71-5.74-5.75-7.89-6.46-2.16-14.35-2.88-7.9-0.71-12.2 4.31-3.59 3.59-5.75 7.18-2.15 3.59-5.74 6.46v19.38q5.03 3.59 9.33 2.87 4.31-0.72 8.62-0.72 3.59 0.72 7.17 0.72 4.31-0.72 7.9-0.72 2.15 2.16 2.15 5.03 0.72 2.15 0.72 5.02 0 2.15 0 5.03 0 2.87 1.44 5.02zm-4.31 172.27q2.87-2.87 3.59-5.75 1.43-3.58 0.72-7.17c0-2.87 0-38.76 0-41.63q0-5.03-0.72-10.05 0-5.03-7.9-5.03-3.59 0-7.89-0.72-3.59-0.71-7.18-0.71-3.59 0-6.46 1.43-2.87 1.44-5.02 6.46-2.16 5.74-5.03 8.62-2.15 2.87-7.89 3.58-3.59 0.72-5.03 3.59-1.43 2.16-1.43 5.75v50.24q0 3.59 0.71 6.46 1.44 2.87 5.03 3.59 5.74 0.72 11.48 0.72 5.74 0 11.49 0 5.74-0.72 5.74-4.31 0.72-3.59 2.15-7.18 0.72-1.43 1.44-2.87 1.43-2.15 2.87-2.87 6.46 0 9.33-2.15zm245.72 66.75q-3.59 2.87-8.61 4.31-5.03 0.71-10.77 0.71-5.03 0-10.77 0-6.46 0-13.64-0.71-6.46-0.72-12.2 0.71-7.89 2.16-14.35 0.72-5.75-1.43-11.49-4.3-5.02-3.59-10.05-7.9-4.3-5.02-10.05-7.9-4.3-3.58-3.58-8.61 0.71-5.74 0-10.77v-226.81q0.71-12.92-2.16-17.23-2.87-5.02-17.22-3.59-6.46 1.44-10.05-0.72-6.46-2.15-6.46-7.17 0-5.03 2.87-6.46 4.3-0.72 6.46-3.59 2.87-2.87 4.3-5.75 2.16-2.87 3.59-5.02 1.44-2.87 2.87-2.87 5.75-0.72 8.62-3.59 2.87-3.59 5.02-7.18 2.87-3.59 5.74-7.18 2.88-3.58 7.9-4.3 6.46-1.44 5.74-6.46 0-5.74 0-10.77 0-2.87 0-5.02 0-2.87 0.72-5.03h-12.2q-0.72 3.59-1.44 7.18 0 3.59-1.43 7.18h-33.74q0-3.59-0.72-6.46 0-3.59-0.71-7.18-3.59-0.72-6.46-0.72-2.88-0.72-6.46-0.72-2.88-4.3-2.16-8.61 1.44-4.31 0.72-8.61-1.44-0.72-2.15-1.44-0.72-1.43-2.16-1.43h-25.12q-1.43 0-3.59-0.72-1.43-0.72-2.87-0.72v-11.48q1.44-0.72 1.44-1.44 0.71-0.72 2.15-0.72h45.22q2.87-5.02 2.15-9.33-0.71-4.3 0-9.33 7.9-3.59 16.51-2.15 9.33 1.43 17.95-0.72 2.87-2.87 1.43-5.74-0.72-3.59 1.44-7.18 3.59-2.15 7.89-1.43 5.03 0 10.77 0.71 0 3.59 0 6.46 0 2.87 0.72 5.75 2.15 3.58 5.02 2.87 3.59-1.44 7.18 0 0.72 0.71 1.44 1.43 0.71 0 1.43 1.44 0.72 7.89 1.44 10.05 0.71 1.43 6.46 7.17h25.12q3.59 3.59 2.87 7.18 0 2.87-1.44 6.46-3.58 2.15-8.61 2.15-4.31-0.71-8.61-0.71h-5.74q1.43 3.59 2.15 7.89 0.72 4.31 4.31 4.31 12.2 1.43 12.92 7.89 0.71 6.46 0.71 14.36 0 11.48 0.72 17.94 0.72 6.46 3.59 9.34 3.59 2.87 10.05 3.58 6.46 0.72 18.66 1.44 10.41 0 16.22 5.44 1.06-0.68 2.2-1.13 3.59-1.44 7.9-1.44 4.31 0 8.61 0 2.87 0 5.03 0 2.87 0 4.3-2.15 2.88-5.03 4.31-10.05 1.44-5.03 10.05-4.31 13.64 0.72 26.56 0.72 13.63-0.72 27.27 0 5.03 12.2 15.08 15.07 10.04 2.87 21.53 2.16 0.72 6.46 5.02 10.05 5.03 3.58 10.05 7.89 5.03 3.59 7.9 8.61 0.9 1.26 1.43 2.74c0-39.4 0-76.11 0-100.67q-1.43 0.08-2.87 0.32h-15.07q-2.15 2.15-2.87 4.3 0 2.16 0 5.03 0 2.87 0 5.74 0 2.15-1.44 5.02-7.89 0.72-16.51 0-7.89-0.71-16.51 0.72-0.71 3.59-1.43 7.18 0 2.87-0.72 7.18h-33.73q-0.72-3.59-1.44-7.18 0-3.59-0.72-7.18-3.59 0-6.46 0-2.87-0.72-6.46-1.43-2.87-3.59-2.15-7.9 1.43-5.02 0.72-8.61-2.87-2.87-3.59-2.87-6.46-0.72-12.92 0-6.46 0-12.92 0l-6.46-2.16v-10.76q1.43-0.72 2.15-1.44 0.72-1.43 2.16-1.43h44.5q3.59-4.31 2.15-8.62-0.72-5.02 0.72-10.05 7.89-3.58 16.51-1.43 8.61 1.43 17.22-0.72 2.87-2.87 1.44-5.74-0.72-3.59 1.43-7.18 3.59-2.15 7.9-2.15 5.02 0 10.77 1.43 0 3.59 0 6.46 0.71 2.16 0.71 5.75 2.88 3.58 5.75 2.87 3.59-1.44 7.17 0 0.72 0.71 1.44 0.71 0 0.72 0 1.44 0.72 0 0.72 0.72 1.43 7.89 2.15 10.05 0.72 1.43 5.74 6.46h12.92c0-8.45 0-13.79 0-15.08q0-4.3 0-8.61 0.72-4.31 0-7.9-0.71-3.58-3.59-6.46-2.87-3.58-9.33-4.3-3.59-0.72-4.3-5.03 0-5.02 1.43-5.74 5.03-1.43 7.9-5.74 3.59-4.31 6.46-8.61 3.59-4.31 7.18-7.18 4.3-2.87 11.48-1.44 7.9 1.44 12.2-1.43 5.03-2.87 8.62-12.21 1.43-3.58 3.58-5.02 2.88-1.44 6.46-1.44 3.59 0 7.18 0.72 4.31 0.72 7.9 0.72 7.89 0 7.89 5.74 0.72 5.03 0.72 10.05v40.91h61.73q0-3.58 0-5.74 0.72-2.15 0-4.3 0-4.31 4.31-5.03 3.59-0.72 5.74 0 2.87 0 5.74-2.87 2.15-2.15 2.87-5.02 1.44-2.88 2.87-10.77 2.87-2.87 5.75-2.15 2.87 0.71 5.74 0.71 5.74-1.43 10.76 0 2.88 0 5.75-0.71 3.59-0.72 7.17 2.15v31.58q4.31 3.59 8.62 2.87 5.02-0.72 9.33-0.72 3.59 0.72 7.18 0.72 4.3-0.72 7.89-0.72 2.16 2.16 2.16 5.03 0.71 2.15 0.71 5.02 0 2.16 0 5.03 0 2.15 1.44 5.02h30.86q3.59 3.59 2.87 7.9 0 3.59-1.43 7.18h-51.68q-4.31 5.02-2.87 10.76 1.43 5.03-2.16 10.05h-30.86q-3.59 2.87-2.87 5.74 0.72 2.16 0 5.03 0 3.59-3.59 5.02h-10.05q-0.72 5.03-1.43 7.9-0.72 2.15-1.44 4.3-0.72 2.16-2.15 3.59-1.44 1.44-4.31 4.31h-25.12q-0.72 0-2.87-2.15v-30.87q-3.59-3.59-6.46-2.15-2.87 0.72-6.46-0.72-2.16-2.87-3.59-4.31-1.44-1.43-2.87-3.59-0.72-2.15-1.44-4.3 0-2.87-1.43-7.9h-24.41c0 2.87 0 94.75 0 97.62q0.72 4.31 6.46 5.74 6.46 2.16 7.9-2.15 1.43-4.31 5.02-7.9 5.03-4.3 9.33-9.33 4.31-5.02 9.33-9.33 5.03-4.31 11.49-6.46 6.46-2.15 15.07 0 5.74 1.44 12.2 1.44 6.46-0.72 12.92-0.72 6.46 0 10.77 1.43 5.02 1.44 8.61 9.34 3.59 6.46 10.05 12.92 6.46 5.74 12.2 9.33 7.9 5.02 9.34 10.05 2.15 4.3 2.87 11.48 0 5.02 0 10.05 0 5.02 7.17 6.46 10.05 1.43 10.05 7.18 0.72 5.02 0.72 11.48 0.72 25.12 0.72 50.25 0 24.4 0 49.52 0 24.41-0.72 48.81 0 23.69 0.72 48.09 0 5.74 0.72 10.05 0.71 4.31 8.61 7.18 5.02 1.43 6.46 5.02 0.42 0.84 0.72 1.75 0.3-0.91 0.72-1.75 2.15-3.59 7.17-6.46 12.21-7.89 20.82-17.94 8.61-10.05 7.89-28.71-2.15-36.61-1.43-73.22 0.72-37.32 0.72-74.64 0-6.46-1.44-12.21-0.72-5.74-10.77-8.61-2.87-0.72-5.02-3.59-1.44-2.87-3.59-5.74-1.43-3.59-4.31-5.74-2.87-2.87-7.17-2.87-3.59-0.72-4.31-6.46 0-5.75 2.87-6.46 5.74-1.44 10.05-5.75 4.31-4.3 7.9-8.61 4.3-4.31 9.33-6.46 5.02-2.87 12.92 0 3.59 0 5.74-0.72 1.43-0.72 3.59-1.43-0.72-5.75 2.15-8.62 2.87-2.87 6.46-5.02 4.31-2.15 7.18-4.31 3.59-2.87 4.31-7.18 0.71-5.74 3.58-6.46 3.59-1.43 7.9-0.71 5.02 0.71 5.74 4.3 0.72 3.59 0.72 7.18 0.72 14.36 0.72 29.43c0 9.57 0 213.66 0 223.23q0 7.18 0.72 13.64 0.71 5.74 11.48 9.33 5.02 1.43 8.61 8.61 4.31 6.46 11.49 10.05 5.74 2.87 4.3 11.48-0.71 7.9-2.15 15.08-1.43 5.74-6.46 5.74c-2.87 0-16.51 0-19.38 0v11.48q4.31 2.88 8.61 2.16 5.03-0.72 9.34 0h15.07q2.15 2.15 2.15 5.02 0.72 2.16 0.72 5.03 0 2.15 0 5.02 0 2.15 1.44 5.03h30.86q3.59 3.58 2.87 7.17 0 3.59-1.43 7.9h-51.68q-4.31 5.02-2.88 10.77 1.44 5.02-2.15 10.04h-30.86q-3.59 2.88-2.87 5.75 0.71 2.15 0.71 4.3-0.71 4.31-4.3 5.75h-10.05q-0.72 5.02-1.44 7.89-0.72 2.15-1.43 4.31-0.72 2.15-2.16 3.59-1.43 1.43-4.3 4.3h-25.13q-0.71 0-2.87-2.15v-30.86q-3.59-3.59-6.46-2.16-2.87 0.72-6.46-0.72-2.15-2.87-3.59-4.3-1.43-1.44-2.87-3.59-0.71-2.15-1.43-4.31 0-2.87-1.44-7.89h-31.58q-3.59-4.31-2.87-8.62 0.72-5.02 0.72-9.33 0-4.3-0.72-8.61 0-4.31 2.15-9.33h69.63q0-3.59 0-5.74 0.71-2.88 0-4.31 0-2.15 1.43-3.59-7.18-0.72-14.35 0-7.18 0-14.36 0-5.02-0.72-10.77-1.44-5.02-0.71-3.58-7.89 0-3.43-0.66-6.85-0.03 0.19-0.06 0.39-0.72 3.59-0.72 7.18 0.72 7.89-5.02 8.61-5.03 0-10.05 0-22.97 0-45.94 0-22.97-0.72-45.94 0-8.61 0-13.64-2.87-4.3-2.87-2.87-12.92 0-3.59 0-7.18 0-3.59 0.72-6.46 1.44-2.87 4.31-4.31 2.87-2.15 9.33-2.15 7.89 0 12.2-0.72 4.31-0.71 6.46-2.87 2.15-2.87 2.15-7.18 0.72-5.02 0.72-12.92c0-2.39 0-191.4 0-193.8q0.72-3.58-0.72-6.46-0.71-3.58-3.59-5.74-2.87-2.15-8.61-2.87-1.43 0-2.87-1.43-0.72-2.16-2.15-3.59-10.05-12.92-19.38-12.21-8.62 0-18.67 12.21-5.02 5.74-10.76 12.2-5.74 6.46-12.2 9.33-9.34 3.59-10.77 9.33-0.72 5.03-0.72 12.2c0 5.27 0 180.4 0 183.75q0.72 4.31 2.87 6.46 2.16 2.16 6.46 2.88 4.31 0.71 12.2 1.43 4.31 0.72 8.62 1.44 4.3 0 5.02 6.46 0.72 5.74 1.44 12.2 0.72 6.46-2.87 12.2-2.16 3.59-5.75 3.59c-1.91 0-98.81 0-101.2 0q-3.59 0-8.62 0-5.02 0-5.74-5.74-1.43-7.9-2.87-16.51-0.14-1.88 0.06-3.46-2.38 2.31-4.37 4.89-7.17 8.62-14.35 18.67-3.59 5.02-8.61 4.3-5.03-0.71-10.77 0-5.74 0-10.05 1.44-3.59 1.43-6.46 9.33-1.44 4.31-6.46 6.46-5.02 2.15-10.77 2.15-5.02 0-10.05-2.15-5.02-2.15-6.46-6.46-2.87-7.9-7.17-9.33-4.31-1.44-10.05-1.44h-25.84q-4.31-0.71-8.61-1.43-3.59-1.44-3.59-7.9-0.59-5.25-5.92-7.18-1.89 5.18-4.61 7.9zm171.31-258.4q0.72 7.18 0.72 14.36 0 3.58 0 7.89 0 3.59-1.44 6.46-0.72 2.87-3.59 5.03-2.87 2.15-8.61 2.87-1.44 0-5.74 0-3.59 0-8.62 0-4.3 0-8.61 0-4.31-0.72-5.74-0.72-9.33-0.72-10.77-5.74-1.44-5.75-1.44-12.21v-22.96q0-5.75-1.43-9.34-1.44-4.3-8.61-5.02-6.46 0-6.46-6.46-0.72-8.61-6.46-9.33-5.03-0.72-10.77-0.72-4.31 0-10.77 0-5.74-0.72-5.74 2.15 0 5.75-4.31 9.34-4.3 2.87-8.61 5.74-4.31 2.15-7.89 6.46-2.88 3.59-0.72 10.76 1.43 5.75 0 11.49-0.72 5.74-10.77 7.18-5.74 1.43-5.74 6.46 0.72 4.3 0 8.61v66.04q0 12.2-0.72 23.68-0.72 10.77 0.72 22.25 0 4.31-0.72 9.33-0.72 5.03-1.43 10.05 0 4.31 1.43 7.9 1.44 3.59 6.46 5.02 5.03 1.44 7.18 5.03 2.15 3.59 3.59 7.18 2.15 2.87 4.3 5.74 2.88 2.15 7.9 1.43 2.87-0.71 4.31 1.44 2.15 2.15 2.15 5.74 0.72 10.05 6.46 10.77 5.74 0 12.2 0 5.74 0.72 10.77 1.43 5.74 0.72 7.89 10.05 2.16 6.46 7.18 6.46 5.74 0 8.61-8.61 2.16-9.33 12.21-9.33 9.33 0 16.51-0.72 7.89-1.44 10.04-14.36 0.72-3.58 5.03-3.58 4.31 0 7.89 2.87 2.16 1.43 2.88 6.46 0.71 4.3 0.71 10.05 0 4.21-0.5 7.92 0.32-0.73 0.5-1.46 0.72-3.59 0-7.18 0-3.59 0-7.18 0.72-15.79 0-31.58c0-5.78 0-101.66 0-188.78q-1.43 6.46-1.43 13.64zm-191.41-21.53q-6.46 0.71-10.05 4.3-2.87 2.87-3.59 10.05c0 1.32 0 19.31 0 43.88q2.09-0.99 3.35-2.25 2.87-2.87 3.59-7.17 1.44-4.31 1.44-8.62 0-5.02 0-9.33 0-2.15 0.72-4.31 0.71-2.87 1.43-2.87 7.9-0.71 11.49-3.59 3.58-3.58 4.3-7.89 1.44-4.31 0.72-9.33 0-1.96 0-3.91-8.2 0.52-13.4 1.04zm-13.64 208.87q0 5.74-0.71 12.2-0.72 6.46 7.17 10.05 1.82 0.83 3.64 1.27-2.18-1.91-1.72-5.58 0.72-5.74 0-10.76-0.72-5.74-1.44-10.77-0.61-4.27-6.94-5.95c0 5.21 0 8.58 0 9.54zm-47.37-314.39v-12.92h-33.02q0 0-2.15 2.16v12.92h33.02zm184.94-13.64q-0.71 0-1.43 0.72 0 0.71-1.44 1.43v13.64h33.02q0 0 2.15-2.15v-13.64zm258.4-10.77q1.44-3.59-1.43-5.74-11.49-0.72-15.08-4.31-3.58-4.3-4.3-16.5-2.16-0.72-4.31-0.72-6.46 0-7.89 1.43-0.72 0.72-2.16 7.18-0.72 10.05-10.76 12.2-2.16 0.72-5.03 0-2.15-0.71-5.02 2.16 0 5.74-0.72 12.2 0 6.46 1.43 12.2 0.72 2.87 2.88 5.02 2.87 2.16 5.02 3.59 2.87 1.44 4.31 0 2.15-2.15 4.3-3.59 2.16-1.43 2.87-3.58 0.72-2.16 0.72-4.31 0-2.15 0-4.31 0-2.15 2.16-4.3h30.14q0.72 0 1.44-0.72 0.72-1.44 2.15-2.15-1.43-2.88-0.72-5.75zm78.96 5.75q0-10.77 12.2-18.67 1.44-1.43 3.59-2.15 2.15-0.72 2.15-2.15 1.44-10.05 6.46-10.77 5.75-1.44 13.64-2.15 7.9 0 12.2 2.87 5.03 2.87 7.18 11.48 1.44 3.59 6.46 3.59 5.74-0.72 7.18 5.03 0.72 2.87 0.72 5.74 0 2.87 0.71 4.3-0.71 7.9-1.43 14.36 0 5.74-10.05 6.46-1.44 0-2.87 2.15-1.44 1.44-2.15 2.87-0.72 10.05-6.46 11.49-5.03 1.43-12.92 1.43-7.9 0.72-12.92-2.15-5.03-2.87-5.75-12.2 0-1.44-2.15-2.16-2.15-0.71-3.59-1.43-12.2-7.9-12.2-17.94zm81.11 450.76q0.72-2.87-2.16-5.74-11.48 0-15.07-3.59-3.59-4.31-4.31-17.23h-3.58q-7.18 0-8.62 1.44-0.72 0.71-2.15 7.17-0.72 10.05-10.77 11.49-2.15 0.72-5.02 0.72-2.16-0.72-5.03 2.15 0 5.74-0.71 12.2 0 6.46 1.43 12.2 0.72 2.88 2.87 5.03 2.87 2.15 5.74 3.59 2.16 1.43 3.59 0 2.16-2.16 4.31-3.59 2.15-1.44 2.87-3.59 0.72-2.15 0.72-4.31 0-2.15 0-4.3 0.72-2.16 2.87-4.31h29.43q0.72 0 1.43-0.72 0.72-1.43 2.16-2.15-0.72-3.59 0-6.46z"/>
</svg>